# xmcd
#
# Track frame offsets: 
#        182
#        17607
#        35375
#        51255
#        73527
#        88140
#        100712
#        120470
#        135062
#        148082
#
# Disc length: 2174 seconds
#
# Revision: 1
# Processed by: cddbd v1.5.2PL0 Copyright (c) Steve Scherf et al.
# Submitted via: ExactAudioCopy v1.1
#
DISCID=7c087c0a
DTITLE=Delbert McClinton - Second Wind
DYEAR=1978
DGENRE=Pop
TTITLE0='B' Movie
TTITLE1=Isn't That So
TTITLE2=Corinna
TTITLE3=Take It Easy
TTITLE4=Spoonful
TTITLE5=It Ain't Whatcha Eat But How You Chew It
TTITLE6=Sick And Tired
TTITLE7=Maybe Someday Baby
TTITLE8=Big River
TTITLE9=Lovinest Man
EXTD=
EXTT0=
EXTT1=
EXTT2=
EXTT3=
EXTT4=
EXTT5=
EXTT6=
EXTT7=
EXTT8=
EXTT9=
PLAYORDER=
